<?xml version="1.0" encoding="utf-8"?>
<!-- Generated by IcoMoon.io -->
<!DOCTYPE svg PUBLIC "-//W3C//DTD SVG 1.1//EN" "http://www.w3.org/Graphics/SVG/1.1/DTD/svg11.dtd">
<svg version="1.1" xmlns="http://www.w3.org/2000/svg" xmlns:xlink="http://www.w3.org/1999/xlink" width="32" height="32" viewBox="0 0 32 32">
<path fill="#000" d="M21.388 31.87c-0.693-0.157-1.281-0.489-1.808-1.023-0.738-0.748-1.060-1.526-1.060-2.562 0-1.012 0.316-1.798 1.018-2.538l0.441-0.464-0.888-1.777c-0.739-1.48-0.906-1.77-0.994-1.735-0.825 0.327-2.293 0.432-3.255 0.233-1.070-0.222-2.043-0.697-2.824-1.381-0.231-0.202-0.392-0.3-0.443-0.27-0.044 0.026-1.095 0.86-2.337 1.854-1.585 1.269-2.247 1.835-2.224 1.901 0.018 0.052 0.109 0.305 0.204 0.562 0.148 0.403 0.172 0.563 0.173 1.153 0.003 1.079-0.307 1.821-1.081 2.592-0.734 0.731-1.519 1.054-2.563 1.054-1.036 0-1.814-0.322-2.562-1.060-1.179-1.164-1.436-2.85-0.659-4.332 0.277-0.528 1.022-1.257 1.543-1.508 0.665-0.321 1.113-0.411 1.865-0.377 0.772 0.035 1.275 0.196 1.862 0.597 0.209 0.143 0.398 0.26 0.42 0.26 0.058 0 4.637-3.671 4.637-3.718 0-0.021-0.081-0.182-0.179-0.358-1.090-1.939-0.99-4.463 0.249-6.326l0.358-0.539-5.369-5.378-0.475 0.244c-2.353 1.211-5.129-0.351-5.343-3.008-0.113-1.399 0.723-2.86 1.995-3.487 0.974-0.48 1.869-0.54 2.876-0.193 2.105 0.726 3.058 3.133 2.032 5.128l-0.244 0.475 5.378 5.369 0.539-0.358c1.296-0.862 2.934-1.191 4.498-0.904 0.302 0.055 0.559 0.091 0.571 0.078s0.307-0.737 0.656-1.609l0.634-1.587-0.176-0.122c-0.097-0.067-0.351-0.301-0.566-0.52-0.87-0.89-1.206-2.175-0.89-3.41 0.17-0.666 0.46-1.18 0.937-1.662 0.651-0.659 1.426-1.017 2.361-1.092 1.631-0.13 3.245 0.984 3.755 2.592 0.169 0.533 0.183 1.495 0.028 2.023-0.501 1.714-1.988 2.772-3.797 2.704l-0.551-0.021-0.588 1.465c-0.324 0.806-0.604 1.524-0.623 1.596-0.028 0.11 0.052 0.189 0.485 0.478 1.705 1.139 2.728 3.039 2.731 5.069l0.001 0.63 1.293 0.258c0.711 0.142 1.328 0.258 1.37 0.258s0.165-0.175 0.273-0.39c0.27-0.535 1.015-1.272 1.554-1.535 0.585-0.286 1.004-0.38 1.693-0.381 1.404-0.002 2.644 0.763 3.258 2.009 0.714 1.45 0.44 3.080-0.71 4.226-1.115 1.111-2.77 1.372-4.227 0.669-0.54-0.261-1.28-0.982-1.563-1.524-0.228-0.437-0.448-1.223-0.448-1.605v-0.256l-1.347-0.267c-0.741-0.147-1.361-0.253-1.379-0.235s-0.125 0.259-0.239 0.536c-0.386 0.944-1.26 2.048-2.036 2.575-0.162 0.11-0.295 0.221-0.296 0.247s0.393 0.835 0.875 1.799c0.861 1.721 0.879 1.751 1.044 1.715 0.092-0.020 0.395-0.055 0.672-0.077 1.705-0.137 3.368 1.068 3.796 2.748 0.122 0.481 0.121 1.317-0.003 1.796-0.321 1.238-1.312 2.272-2.52 2.628-0.497 0.147-1.321 0.177-1.808 0.067z"></path>
</svg>
